<?xml version="1.0" standalone="no"?>
<!DOCTYPE svg PUBLIC "-//W3C//DTD SVG 20010904//EN"
 "http://www.w3.org/TR/2001/REC-SVG-20010904/DTD/svg10.dtd">
<svg version="1.0" xmlns="http://www.w3.org/2000/svg"
 width="256.000000pt" height="256.000000pt" viewBox="0 0 256.000000 256.000000"
 preserveAspectRatio="xMidYMid meet">

<g transform="translate(0.000000,256.000000) scale(0.100000,-0.100000)"
fill="#000000" stroke="none">
<path d="M0 1280 l0 -1280 1280 0 1280 0 0 1280 0 1280 -1280 0 -1280 0 0
-1280z m2465 -45 l0 -1180 -1177 -3 -1178 -2 0 1185 0 1185 1178 -2 1177 -3 0
-1180z"/>
<path d="M1545 1808 c-77 -40 -164 -41 -237 -3 -60 31 -83 31 -150 0 -33 -15
-71 -25 -101 -25 -27 0 -57 -5 -67 -10 -16 -9 -22 -5 -35 20 -8 16 -20 30 -26
30 -12 0 -117 -53 -144 -73 -19 -15 -19 -16 10 -77 24 -51 27 -64 17 -80 -7
-11 -12 -42 -12 -70 0 -34 -8 -67 -25 -100 -31 -62 -31 -88 0 -150 17 -33 25
-66 25 -100 0 -28 5 -61 11 -72 11 -20 5 -30 -25 -41 -8 -3 63 -149 80 -166 2
-2 28 7 59 19 42 17 59 20 68 11 6 -6 35 -11 64 -11 37 0 69 -8 103 -25 62
-31 89 -31 148 0 32 17 63 25 98 25 57 0 93 21 125 74 10 17 42 47 71 66 56
38 65 56 67 133 1 29 11 67 26 97 31 60 31 70 3 123 -12 24 -25 71 -28 110 -5
45 -13 74 -26 88 -19 21 -19 22 0 33 60 36 60 33 14 123 -24 46 -45 83 -48 82
-3 0 -32 -14 -65 -31z m-192 -59 c22 -6 37 -15 34 -22 -5 -13 -17 -13 -97 1
-68 12 -143 1 -215 -32 -42 -19 -55 -21 -59 -11 -9 23 65 60 150 75 52 9 125
4 187 -11z m-55 -55 c31 -9 28 -19 -15 -39 -21 -10 -69 -40 -106 -68 -38 -28
-72 -46 -76 -41 -5 5 -20 30 -35 55 l-26 45 38 19 c31 15 87 25 182 33 8 1 25
-1 38 -4z m299 -141 c64 -115 70 -264 15 -376 -43 -87 -131 -179 -203 -212
-70 -32 -159 -48 -213 -40 -57 9 -146 36 -146 45 0 17 32 18 75 4 31 -11 71
-15 128 -13 70 3 93 9 158 41 118 57 179 140 200 270 15 92 3 176 -36 251 -23
45 -25 67 -6 67 4 0 17 -17 28 -37z m-54 -40 c13 -27 27 -61 31 -78 7 -28 4
-26 -51 28 l-58 58 24 20 c13 10 25 19 27 19 2 0 14 -21 27 -47z m-678 -51
c-25 -77 -18 -200 17 -274 18 -39 23 -60 16 -64 -15 -9 -34 18 -59 85 -17 46
-20 73 -17 151 4 101 29 183 49 163 7 -7 5 -26 -6 -61z m570 38 c-3 -5 -12
-10 -18 -10 -7 0 -6 4 3 10 19 12 23 12 15 0z m-506 -62 l20 -33 -26 -27 c-32
-34 -43 -35 -43 -5 0 23 19 97 24 97 2 0 13 -15 25 -32z m366 -43 c-48 -43
-70 -55 -63 -36 3 9 98 79 108 80 3 0 -17 -19 -45 -44z m290 -82 c-16 -114
-114 -249 -211 -292 -56 -25 -152 -36 -207 -24 -46 10 -47 22 -3 48 l35 20 34
-33 33 -32 68 70 c67 69 68 71 50 91 -16 17 -16 22 -4 29 35 21 149 116 149
123 1 11 43 46 55 47 4 0 5 -21 1 -47z m-565 -109 c0 -9 -75 -52 -82 -47 -15
8 -45 85 -53 133 l-7 44 71 -63 c39 -35 71 -65 71 -67z"/>
<path d="M790 652 c0 -24 -4 -27 -31 -27 -40 0 -75 -41 -65 -78 10 -42 32 -56
86 -55 l50 0 0 94 c0 87 -1 94 -20 94 -15 0 -20 -7 -20 -28z m-2 -95 c4 -33
-22 -47 -45 -24 -22 21 -8 59 20 55 16 -2 23 -11 25 -31z"/>
<path d="M200 580 c0 -82 2 -90 19 -90 15 0 21 8 23 33 3 28 7 32 36 35 31 3
32 2 32 -32 0 -29 4 -36 20 -36 19 0 20 7 20 90 0 83 -1 90 -20 90 -16 0 -20
-7 -20 -35 0 -33 -2 -35 -35 -35 -33 0 -35 2 -35 35 0 28 -4 35 -20 35 -19 0
-20 -7 -20 -90z"/>
<path d="M1260 580 c0 -83 1 -90 20 -90 17 0 20 7 20 48 l0 47 23 -39 c12 -22
27 -41 34 -43 7 -3 22 15 35 39 l23 43 3 -47 c3 -40 6 -48 23 -48 17 0 19 8
19 90 l0 90 -28 0 c-24 0 -32 -8 -51 -47 l-23 -48 -24 48 c-19 37 -30 47 -49
47 -25 0 -25 -1 -25 -90z"/>
<path d="M405 605 c-31 -30 -31 -54 -4 -89 17 -22 28 -27 58 -24 25 2 37 8 39
20 3 15 -2 17 -26 12 -17 -4 -32 -1 -36 5 -5 7 8 11 38 11 42 0 46 2 46 25 0
32 -33 65 -65 65 -14 0 -37 -11 -50 -25z m70 -25 c4 -6 -5 -10 -19 -10 -14 0
-26 5 -26 10 0 6 9 10 19 10 11 0 23 -4 26 -10z"/>
<path d="M561 621 c-25 -16 -6 -38 31 -34 l33 3 -34 -13 c-80 -31 -66 -81 23
-84 l56 -2 0 47 c0 62 -21 92 -63 92 -18 0 -38 -4 -46 -9z m59 -80 c0 -14 -18
-23 -30 -16 -6 4 -8 11 -5 16 8 12 35 12 35 0z"/>
<path d="M882 607 c-47 -50 -13 -121 56 -115 25 2 37 8 37 18 0 10 -8 14 -27
12 -14 -1 -29 2 -33 8 -4 6 11 10 39 10 42 0 46 2 46 25 0 59 -77 86 -118 42z
m68 -27 c0 -5 -9 -10 -20 -10 -11 0 -20 5 -20 10 0 6 9 10 20 10 11 0 20 -4
20 -10z"/>
<path d="M1030 560 c0 -63 2 -70 20 -70 17 0 20 7 20 45 0 35 5 47 21 55 29
16 19 32 -24 36 l-37 3 0 -69z"/>
<path d="M1512 622 c-24 -16 -3 -39 31 -35 l32 3 -32 -12 c-49 -20 -59 -33
-45 -63 10 -22 17 -25 62 -24 l50 2 0 56 c0 31 -5 62 -12 69 -14 14 -67 16
-86 4z m58 -87 c0 -8 -6 -15 -14 -15 -17 0 -28 14 -19 24 12 12 33 6 33 -9z"/>
<path d="M1650 559 c0 -62 2 -69 20 -69 17 0 20 7 20 40 0 29 5 43 20 52 35
22 25 44 -20 45 l-40 2 0 -70z"/>
<path d="M1765 608 c-21 -30 -19 -81 3 -101 10 -10 33 -17 50 -17 28 0 32 -3
32 -26 0 -19 4 -25 18 -22 15 3 17 16 17 93 l0 90 -52 2 c-44 2 -55 -1 -68
-19z m79 -34 c8 -22 -12 -56 -32 -52 -18 3 -27 30 -18 54 7 19 42 18 50 -2z"/>
<path d="M1920 579 c0 -77 10 -88 75 -88 l55 1 0 69 c0 62 -2 69 -20 69 -17 0
-20 -7 -20 -42 0 -51 -12 -73 -34 -65 -12 5 -16 20 -16 57 0 43 -3 50 -20 50
-17 0 -20 -7 -20 -51z"/>
<path d="M2100 610 c-26 -26 -26 -74 1 -101 24 -24 94 -24 94 1 0 11 -9 14
-32 12 -17 -2 -34 2 -38 7 -4 7 12 11 44 11 47 0 51 2 51 23 0 31 -39 67 -73
67 -15 0 -36 -9 -47 -20z m70 -30 c0 -5 -9 -10 -20 -10 -11 0 -20 5 -20 10 0
6 9 10 20 10 11 0 20 -4 20 -10z"/>
<path d="M2262 614 c-28 -20 -31 -83 -4 -107 20 -18 68 -22 91 -8 22 14 3 31
-28 25 -16 -4 -32 -1 -35 5 -5 7 8 11 38 11 44 0 46 1 46 29 0 33 -30 61 -65
61 -11 0 -31 -7 -43 -16z m68 -34 c0 -5 -11 -10 -25 -10 -14 0 -25 5 -25 10 0
6 11 10 25 10 14 0 25 -4 25 -10z"/>
<path d="M1130 565 c0 -11 12 -15 45 -15 33 0 45 4 45 15 0 11 -12 15 -45 15
-33 0 -45 -4 -45 -15z"/>
</g>
</svg>
